<svg xmlns="http://www.w3.org/2000/svg" viewBox="0 0 600 400" preserveAspectRatio="xMidYMid slice" role="img" aria-label="Apartment building photo placeholder">
  <defs>
    <linearGradient id="sky1" x1="0" y1="0" x2="0" y2="1">
      <stop offset="0" stop-color="#2BAEE3"/>
      <stop offset="1" stop-color="#1D67CD"/>
    </linearGradient>
  </defs>
  <rect width="600" height="400" fill="url(#sky1)"/>
  <circle cx="500" cy="80" r="46" fill="#ffffff" opacity="0.55"/>
  <rect x="120" y="150" width="150" height="250" fill="#115F7E"/>
  <rect x="290" y="100" width="180" height="300" fill="#002433"/>
  <g fill="#ffd98a" opacity="0.9">
    <rect x="140" y="175" width="28" height="34"/><rect x="186" y="175" width="28" height="34"/><rect x="232" y="175" width="22" height="34"/>
    <rect x="140" y="230" width="28" height="34"/><rect x="186" y="230" width="28" height="34"/><rect x="232" y="230" width="22" height="34"/>
    <rect x="140" y="285" width="28" height="34"/><rect x="186" y="285" width="28" height="34"/><rect x="232" y="285" width="22" height="34"/>
    <rect x="312" y="130" width="30" height="36"/><rect x="364" y="130" width="30" height="36"/><rect x="416" y="130" width="30" height="36"/>
    <rect x="312" y="195" width="30" height="36"/><rect x="364" y="195" width="30" height="36"/><rect x="416" y="195" width="30" height="36"/>
    <rect x="312" y="260" width="30" height="36"/><rect x="364" y="260" width="30" height="36"/><rect x="416" y="260" width="30" height="36"/>
  </g>
  <rect x="0" y="380" width="600" height="20" fill="#002433"/>
</svg>
